<svg version="1.2" xmlns="http://www.w3.org/2000/svg" viewBox="0 0 400 400" width="400" height="400">
	<defs>
		<linearGradient id="g1" x2="1" gradientUnits="userSpaceOnUse" gradientTransform="matrix(-135.931,83.586,-100.041,-162.69,380.905,46.934)">
			<stop offset="0" stop-color="#9e5b27"/>
			<stop offset="1" stop-color="#4a290f"/>
		</linearGradient>
	</defs>
	<style>
		.s0 { fill: #353535 } 
		.s1 { fill: none;stroke: #1c1c1c;stroke-miterlimit:10;stroke-width: 13 } 
		.s2 { fill: #1d191e;stroke: #1c1c1c;stroke-miterlimit:10;stroke-width: 0 } 
		.s3 { fill: #c1c1c1;stroke: #1c1c1c;stroke-miterlimit:10;stroke-width: 0 } 
		.s4 { fill: #4f4f4f;stroke: #1c1c1c;stroke-miterlimit:10;stroke-width: 11 } 
		.s5 { fill: #9c9c9c;stroke: #1c1c1c;stroke-miterlimit:10;stroke-width: 11 } 
		.s6 { fill: none;stroke: url(#g1);stroke-miterlimit:10;stroke-width: 28 } 
	</style>
	<g id="Layer 1">
		<path id="Shape 1" fill-rule="evenodd" class="s0" d="m155.95 358c-76.31 0-137.99-61.68-137.99-137.99 0-76.3 61.68-137.98 137.99-137.98 76.31 0 137.99 61.68 137.99 137.98 0 76.31-61.68 137.99-137.99 137.99z"/>
		<path id="Shape 1 copy" fill-rule="evenodd" class="s1" d="m155.95 358c-76.31 0-137.99-61.68-137.99-137.99 0-76.3 61.68-137.98 137.99-137.98 76.31 0 137.99 61.68 137.99 137.98 0 76.31-61.68 137.99-137.99 137.99z"/>
		<path id="Shape 1 copy 2" fill-rule="evenodd" class="s2" d="m155.95 358c-71.85 0-130.74-54.69-137.37-124.79 21.5 39.62 63.45 66.47 111.77 66.47 70.27 0 127.08-56.8 127.08-127.08 0-21.83-5.48-42.37-15.15-60.3 31.51 25.27 51.66 64.1 51.66 107.71 0 76.31-61.68 137.99-137.99 137.99z"/>
		<path id="Shape 2" fill-rule="evenodd" class="s3" d="m133.68 148.8c-18.77 0-38.99 1.2-38.99-12.54 0-13.74 18.1-30.24 36.86-30.24 18.77 0 36.6 14.52 36.6 28.25 0 13.74-15.71 14.53-34.47 14.53zm-50 23.42c-8.41 2.02-16.36 4.6-17.71-1-1.34-5.61 4.57-14.35 12.99-16.37 8.41-2.02 16.09 3.46 17.44 9.07 1.34 5.61-4.3 6.28-12.72 8.3z"/>
	</g>
	<g id="Folder 1">
		<path id="Shape 3 copy 2" fill-rule="evenodd" class="s4" d="m289.41 134.88l-23.3 23.31q-0.15 0.15-0.36 0.25-0.26 0.36-0.58 0.67c-6.78 6.79-28.54-4.01-48.7-24.15-20.15-20.14-30.96-41.9-24.18-48.68q0.33-0.33 0.71-0.61 0.09-0.18 0.23-0.31l23.29-23.31z"/>
		<path id="Shape 3 copy" fill-rule="evenodd" class="s5" d="m244.34 107.09c-20.15-20.14-30.96-41.9-24.18-48.68 6.78-6.78 28.54 4.01 48.7 24.15 20.15 20.14 30.96 41.9 24.18 48.68-6.77 6.79-28.54-4.01-48.7-24.15z"/>
	</g>
	<g id="Folder 2">
		<path id="Shape 3" fill-rule="evenodd" class="s6" d="m255.72 94.69c0 0 62.09-60.07 83.48-36.05 16.81 18.86 9.83 36.26 1.7 49.15-20.82 33-4.06 73.22 40.61 26.37"/>
	</g>
</svg>